<svg xmlns="http://www.w3.org/2000/svg" width="300" height="450" viewBox="0 0 300 450">
  <defs>
    <linearGradient id="posterGradient" x1="0%" y1="0%" x2="0%" y2="100%">
      <stop offset="0%" stop-color="#424242" />
      <stop offset="100%" stop-color="#212121" />
    </linearGradient>
  </defs>

  <rect width="300" height="450" fill="url(#posterGradient)" />

  <rect x="5" y="5" width="290" height="440" fill="none" stroke="#757575" stroke-width="1" rx="3" ry="3" />

  <g transform="translate(150, 180)">
    <circle cx="0" cy="0" r="60" fill="#424242" stroke="#757575" stroke-width="2" />
    <circle cx="0" cy="0" r="50" fill="#333333" />

    <rect x="-30" y="-15" width="60" height="30" rx="5" ry="5" fill="#757575" />
    <rect x="-25" y="-10" width="50" height="20" rx="3" ry="3" fill="#333333" />

    <circle cx="-40" cy="0" r="5" fill="#212121" stroke="#757575" stroke-width="1" />
    <circle cx="40" cy="0" r="5" fill="#212121" stroke="#757575" stroke-width="1" />
    <circle cx="0" cy="-40" r="5" fill="#212121" stroke="#757575" stroke-width="1" />
    <circle cx="0" cy="40" r="5" fill="#212121" stroke="#757575" stroke-width="1" />
    <circle cx="-28" cy="-28" r="5" fill="#212121" stroke="#757575" stroke-width="1" />
    <circle cx="28" cy="-28" r="5" fill="#212121" stroke="#757575" stroke-width="1" />
    <circle cx="-28" cy="28" r="5" fill="#212121" stroke="#757575" stroke-width="1" />
    <circle cx="28" cy="28" r="5" fill="#212121" stroke="#757575" stroke-width="1" />
  </g>

  <g>
    <text x="150" y="320" font-family="Arial, sans-serif" font-size="24" font-weight="bold" text-anchor="middle" fill="#e0e0e0">No Image</text>
    <text x="150" y="350" font-family="Arial, sans-serif" font-size="18" text-anchor="middle" fill="#9e9e9e">Available</text>
  </g>
</svg>
